<svg xmlns="http://www.w3.org/2000/svg" xmlns:ev="http://www.w3.org/2001/xml-events" xmlns:xlink="http://www.w3.org/1999/xlink" width="304" height="610" baseProfile="full" version="1.1" viewbox="0 0 304 610" style="font-weight:700;font-size:10pt;font-family:'Arial',Helvetica,sans-serif;stroke-width:2;stroke-linejoin:round;stroke-linecap:round"><text x="172" y="111" style="font-weight:400">load()</text><path d="M152 81 L152 105 L152 129 L152 129" style="stroke:#33322e;fill:none;stroke-dasharray:none"/><path d="M148.8 121 L152 125 L155.2 121 L152 129 Z" style="stroke:#33322e;fill:#33322e;stroke-dasharray:none"/><text x="172" y="211" style="font-weight:400">media()</text><path d="M152 181 L152 205 L152 229 L152 229" style="stroke:#33322e;fill:none;stroke-dasharray:none"/><path d="M148.8 221 L152 225 L155.2 221 L152 229 Z" style="stroke:#33322e;fill:#33322e;stroke-dasharray:none"/><text x="172" y="311" style="font-weight:400">media()/ start()</text><path d="M152 281 L152 305 L152 329 L152 329" style="stroke:#33322e;fill:none;stroke-dasharray:none"/><path d="M148.8 321 L152 325 L155.2 321 L152 329 Z" style="stroke:#33322e;fill:#33322e;stroke-dasharray:none"/><path d="M152 381 L152 405 L152 429 L152 429" style="stroke:#33322e;fill:none;stroke-dasharray:4 4"/><path d="M148.8 421 L152 425 L155.2 421 L152 429 Z" style="stroke:#33322e;fill:#33322e;stroke-dasharray:none"/><path d="M155.2 389 L152 385 L148.8 389 L152 381 Z" style="stroke:#33322e;fill:#33322e;stroke-dasharray:none"/><path d="M152 481 L152 505 L152 529 L152 529" style="stroke:#33322e;fill:none;stroke-dasharray:4 4"/><path d="M148.8 521 L152 525 L155.2 521 L152 529 Z" style="stroke:#33322e;fill:#33322e;stroke-dasharray:none"/><path d="M155.2 489 L152 485 L148.8 489 L152 481 Z" style="stroke:#33322e;fill:#33322e;stroke-dasharray:none"/><rect width="154" height="50" x="75" y="30" style="stroke:#33322e;fill:#eee8d5;stroke-dasharray:none"/><text x="95" y="60">HAVE_NOTHING</text><rect width="149" height="50" x="78" y="130" style="stroke:#33322e;fill:#eee8d5;stroke-dasharray:none"/><text x="98" y="160">HAVE_MASTER</text><rect width="192" height="50" x="56" y="230" style="stroke:#33322e;fill:#eee8d5;stroke-dasharray:none"/><text x="76.3" y="260">SWITCHING_MEDIA</text><rect width="168" height="50" x="68" y="330" style="stroke:#33322e;fill:#eee8d5;stroke-dasharray:none"/><text x="88" y="360">HAVE_METADATA</text><text x="67" y="460" style="font-weight:400;font-style:italic">mediaupdatetimeout</text><rect width="244" height="50" x="30" y="530" style="stroke:#33322e;fill:#eee8d5;stroke-dasharray:none"/><text x="50" y="560">HAVE_CURRENT_METADATA</text></svg>